<svg xmlns="http://www.w3.org/2000/svg" width="12.181" height="20.565" viewBox="0 0 12.181 20.565"><defs><style>.a{fill:#0a586c;}</style></defs><g transform="translate(0)"><path class="a" d="M302.219-979.941a.472.472,0,0,0-.159.159l-.059.1.008,2.563c.005,2.555.005,2.563.059,2.635a.669.669,0,0,0,.139.129l.085.059H305.8l.087-.059a.638.638,0,0,0,.144-.144l.059-.087-.005-2.578c-.008-2.558-.008-2.578-.062-2.648a.705.705,0,0,0-.123-.123c-.069-.054-.1-.054-1.823-.059L302.321-980Zm2.756.949a.151.151,0,0,1-.005.239l-.062.064h-.859c-.781,0-.866-.005-.913-.046a.165.165,0,0,1-.031-.244l.054-.069h.879C304.9-979.049,304.915-979.049,304.974-978.992Zm.236,1.509a.6.6,0,0,1,.283.329,16.649,16.649,0,0,1,0,1.861.612.612,0,0,1-.316.345,5.153,5.153,0,0,1-1.18.033l-1.069-.008-.113-.077a.777.777,0,0,1-.175-.193l-.064-.116v-.912c0-.884,0-.915.057-1.015a.519.519,0,0,1,.265-.254,5.329,5.329,0,0,1,1.152-.041C305.051-977.532,305.118-977.53,305.211-977.483Z" transform="translate(-300.997 980)"/><path class="a" d="M339.012-869.954c-.036.041-.041.152-.044.9,0,.856,0,.861.051.9s.139.046,1.046.046h.987l.062-.064.064-.062v-.82c0-.792,0-.823-.054-.889l-.051-.067h-1.01C339.125-870,339.05-870,339.012-869.954Zm1.5.776a.206.206,0,0,1,.051.129.206.206,0,0,1-.051.128c-.046.046-.085.052-.442.052s-.393,0-.45-.057a.174.174,0,0,1-.008-.252c.046-.046.085-.051.45-.051S340.464-869.224,340.511-869.177Z" transform="translate(-337.015 872.828)"/><path class="a" d="M264.954-742.969c0,.018,0,2.1,0,4.635s-.01,4.63-.021,4.663a.244.244,0,0,1-.085.113c-.062.046-.077.046-.149.018a.278.278,0,0,1-.1-.062c-.01-.015-.023-.692-.031-1.5l-.013-1.47-.221.275A5.181,5.181,0,0,0,263-733.342a10.2,10.2,0,0,0,1.9,4.313c.149.226.28.432.29.458a38.432,38.432,0,0,0,4.334.044h4.313l.185-.432a15.731,15.731,0,0,0,1.09-3.7,13.523,13.523,0,0,0,.064-2.008c.01-1.18,0-1.725-.018-1.889a3.449,3.449,0,0,0-1.111-2.005A1.459,1.459,0,0,0,273-738.9l-.129.018v1.4c0,1.365,0,1.4-.051,1.45a.174.174,0,0,1-.247,0c-.046-.051-.049-.129-.062-1.691a7.072,7.072,0,0,0-.072-1.815,1.6,1.6,0,0,0-.761-.915,1.7,1.7,0,0,0-.895-.131c-.139.018-.326.049-.419.072l-.167.041v4.388l-.057.054a.163.163,0,0,1-.249-.015c-.054-.069-.054-.082-.054-2.314,0-1.571-.008-2.285-.028-2.38a1.185,1.185,0,0,0-.817-.9,2.928,2.928,0,0,0-1.37.031l-.1.026v5.491l-.059.054a.157.157,0,0,1-.247-.01l-.054-.069V-743h-1.105A5.657,5.657,0,0,0,264.954-742.969Z" transform="translate(-263 749.092)"/></g></svg>